<?xml version="1.0" encoding="iso-8859-1"?>
<!-- Generator: Adobe Illustrator 18.0.0, SVG Export Plug-In . SVG Version: 6.00 Build 0)  -->
<!DOCTYPE svg PUBLIC "-//W3C//DTD SVG 1.1//EN" "http://www.w3.org/Graphics/SVG/1.1/DTD/svg11.dtd">
<svg version="1.1" id="Capa_1" xmlns="http://www.w3.org/2000/svg" xmlns:xlink="http://www.w3.org/1999/xlink" x="0px" y="0px"
	 viewBox="0 0 482.141 482.141" style="enable-background:new 0 0 482.141 482.141;" xml:space="preserve">
<path d="M315.458,0H121.812C93.522,0,70.496,23.041,70.496,51.316V241.07h-5.013c-11.418,0-20.676,9.25-20.676,20.677v125.404
	c0,11.427,9.258,20.679,20.676,20.679h5.013v22.994c0,28.306,23.027,51.316,51.316,51.316h264.223c28.273,0,51.3-23.011,51.3-51.316
	V121.449L315.458,0z M143.567,355.205c5.935,0,12.515-1.291,16.393-2.835l2.961,15.349c-3.609,1.813-11.741,3.753-22.316,3.753
	c-30.069,0-45.554-18.708-45.554-43.484c0-29.676,21.165-46.193,47.486-46.193c10.196,0,17.935,2.064,21.417,3.862l-3.994,15.617
	c-4.004-1.686-9.551-3.229-16.518-3.229c-15.619,0-27.746,9.423-27.746,28.778C115.696,344.237,126.019,355.205,143.567,355.205z
	 M386.034,450.713H121.812c-10.954,0-19.875-8.92-19.875-19.889V407.83h246.31c11.42,0,20.679-9.252,20.679-20.679V261.747
	c0-11.427-9.259-20.677-20.679-20.677h-246.31V51.316c0-10.939,8.921-19.859,19.875-19.859l181.89-0.189v67.233
	c0,19.637,15.934,35.587,35.587,35.587l65.861-0.188l0.741,296.924C405.891,441.793,396.987,450.713,386.034,450.713z
	 M197.548,333.662c-14.454-5.027-23.877-13.033-23.877-25.674c0-14.848,12.386-26.194,32.906-26.194
	c9.803,0,17.038,2.064,22.191,4.382l-4.382,15.871c-3.482-1.671-9.677-4.131-18.195-4.131c-8.518,0-12.647,3.879-12.647,8.387
	c0,5.547,4.901,8.006,16.13,12.26c15.359,5.675,22.584,13.681,22.584,25.943c0,14.577-11.229,26.966-35.098,26.966
	c-9.937,0-19.747-2.585-24.648-5.297l4.002-16.249c5.289,2.712,13.421,5.407,21.805,5.407c9.031,0,13.806-3.736,13.806-9.411
	C212.126,340.502,207.997,337.397,197.548,333.662z M267.264,333.662c-14.452-5.027-23.877-13.033-23.877-25.674
	c0-14.848,12.388-26.194,32.906-26.194c9.813,0,17.029,2.064,22.199,4.382l-4.388,15.871c-3.484-1.671-9.677-4.131-18.196-4.131
	c-8.518,0-12.647,3.879-12.647,8.387c0,5.547,4.901,8.006,16.131,12.26c15.358,5.675,22.586,13.681,22.586,25.943
	c0,14.577-11.229,26.966-35.099,26.966c-9.938,0-19.749-2.585-24.65-5.297l4.004-16.249c5.287,2.712,13.419,5.407,21.803,5.407
	c9.031,0,13.807-3.736,13.807-9.411C281.842,340.502,277.712,337.397,267.264,333.662z"/>
<g>
</g>
<g>
</g>
<g>
</g>
<g>
</g>
<g>
</g>
<g>
</g>
<g>
</g>
<g>
</g>
<g>
</g>
<g>
</g>
<g>
</g>
<g>
</g>
<g>
</g>
<g>
</g>
<g>
</g>
</svg>
